<?xml version="1.0" encoding="utf-8"?>
<!-- Generator: Adobe Illustrator 25.4.1, SVG Export Plug-In . SVG Version: 6.00 Build 0)  -->
<svg version="1.1" id="Layer_1" xmlns="http://www.w3.org/2000/svg" xmlns:xlink="http://www.w3.org/1999/xlink" x="0px" y="0px"
	 viewBox="0 0 61.4 32.6" style="enable-background:new 0 0 61.4 32.6;" xml:space="preserve">
<g>
	<path class="st0 fill-test"
		  d="M33.1,3.7L2,18.4c0.5,1.5,0.7,3.1,0.7,4.7l8.8,1.3c0,0.1,0,0.2-0.1,0.3c-0.2,0.7-0.4,1.5-0.3,2.5
		c0.3,2.9,2.9,2.9,4.4,2.9c0.4,0,0.8,0,1.2,0.1c1.8,0.2,3.4,0.5,5.2,1c0.6,0.2,1.1,0.3,1.7,0.3c0.3,0,0.6-0.1,0.9-0.2
		c1.2-0.7,1.6-2.2,1.8-3.5c0.1-0.4,0.2-0.9,0.3-1.2l10.1,1.5C36.8,22.9,34.7,8.8,33.1,3.7z M23.7,27.3c-0.1,0.4-0.3,1.2-0.4,1.6
		c-0.2,0-0.4-0.1-0.6-0.2c-0.2-0.1-0.3-0.1-0.4-0.1c-1.6-0.4-3.3-0.8-5.3-1c-0.5,0-0.9-0.1-1.4-0.1c-1.8,0-1.8-0.2-1.8-0.5
		c0-0.4,0.1-1,0.2-1.5c0-0.2,0.1-0.4,0.1-0.6l9.8,1.5C23.9,26.6,23.8,26.9,23.7,27.3z"/>
	<rect x="38.1" y="3.9" transform="matrix(0.9171 -0.3987 0.3987 0.9171 1.4371 18.7055)" class="st0" width="15.2" height="4"/>
	
		<rect x="46.4" y="14.7" transform="matrix(3.243906e-02 -0.9995 0.9995 3.243906e-02 24.7396 69.7906)" class="st0" width="4" height="14.9"/>
	<rect x="40.3" y="11.6" transform="matrix(0.9889 -0.1488 0.1488 0.9889 -1.4618 7.5548)" class="st0" width="18.9" height="4"/>
</g>
</svg>
