<?xml version="1.0" encoding="utf-8"?>
<!-- Generator: Adobe Illustrator 25.4.1, SVG Export Plug-In . SVG Version: 6.00 Build 0)  -->
<svg version="1.1" id="Layer_1" xmlns="http://www.w3.org/2000/svg" xmlns:xlink="http://www.w3.org/1999/xlink" x="0px" y="0px"
	 viewBox="0 0 57.4 30.5" style="enable-background:new 0 0 57.4 30.5;" xml:space="preserve">
<style type="text/css">
	.st0{fill:#84471E;}
</style>
<g>
	<path class="st0" d="M31.1,2.7L0,17.4c0.5,1.5,0.7,3.1,0.7,4.7l8.8,1.3c0,0.1,0,0.2-0.1,0.3c-0.2,0.7-0.4,1.5-0.3,2.5
		c0.3,2.9,2.9,2.9,4.4,2.9c0.4,0,0.8,0,1.2,0.1c1.8,0.2,3.4,0.5,5.2,1c0.6,0.2,1.1,0.3,1.7,0.3c0.3,0,0.6-0.1,0.9-0.2
		c1.2-0.7,1.6-2.2,1.8-3.5c0.1-0.4,0.2-0.9,0.3-1.2l10.1,1.5C34.8,21.9,32.7,7.8,31.1,2.7z M21.7,26.3c-0.1,0.4-0.3,1.2-0.4,1.6
		c-0.2,0-0.4-0.1-0.6-0.2s-0.3-0.1-0.4-0.1c-1.6-0.4-3.3-0.8-5.3-1c-0.5,0-0.9-0.1-1.4-0.1c-1.8,0-1.8-0.2-1.8-0.5
		c0-0.4,0.1-1,0.2-1.5c0-0.2,0.1-0.4,0.1-0.6l9.8,1.5C21.9,25.6,21.8,25.9,21.7,26.3z"/>
	<rect x="36.1" y="2.9" transform="matrix(0.9171 -0.3987 0.3987 0.9171 1.6722 17.8349)" class="st0" width="15.2" height="4"/>
	
		<rect x="44.5" y="13.7" transform="matrix(3.243736e-02 -0.9995 0.9995 3.243736e-02 23.8478 66.9359)" class="st0" width="4" height="14.9"/>
	<rect x="38.3" y="10.6" transform="matrix(0.9889 -0.1488 0.1488 0.9889 -1.3434 7.2462)" class="st0" width="18.9" height="4"/>
</g>
</svg>
